<mxfile host="app.diagrams.net" modified="2024-03-26T06:12:18.667Z" agent="Mozilla/5.0 (Windows NT 10.0; Win64; x64) AppleWebKit/537.36 (KHTML, like Gecko) Chrome/123.0.0.0 Safari/537.36" etag="SBR_-piyXySi8l85K7jt" version="24.1.0" type="github">
  <diagram id="C5RBs43oDa-KdzZeNtuy" name="Page-1">
    <mxGraphModel dx="712" dy="828" grid="1" gridSize="10" guides="1" tooltips="1" connect="1" arrows="1" fold="1" page="1" pageScale="1" pageWidth="827" pageHeight="1169" math="0" shadow="0">
      <root>
        <mxCell id="WIyWlLk6GJQsqaUBKTNV-0" />
        <mxCell id="WIyWlLk6GJQsqaUBKTNV-1" parent="WIyWlLk6GJQsqaUBKTNV-0" />
        <mxCell id="D25OmyDGiZj6zlAR14sD-0" value="location" style="whiteSpace=wrap;html=1;aspect=fixed;" vertex="1" parent="WIyWlLk6GJQsqaUBKTNV-1">
          <mxGeometry x="240" y="40" width="80" height="80" as="geometry" />
        </mxCell>
        <mxCell id="D25OmyDGiZj6zlAR14sD-1" value="data" style="whiteSpace=wrap;html=1;aspect=fixed;" vertex="1" parent="WIyWlLk6GJQsqaUBKTNV-1">
          <mxGeometry x="240" y="160" width="80" height="80" as="geometry" />
        </mxCell>
        <mxCell id="D25OmyDGiZj6zlAR14sD-2" value="mines" style="whiteSpace=wrap;html=1;aspect=fixed;" vertex="1" parent="WIyWlLk6GJQsqaUBKTNV-1">
          <mxGeometry x="120" y="280" width="80" height="80" as="geometry" />
        </mxCell>
        <mxCell id="D25OmyDGiZj6zlAR14sD-3" value="&lt;div&gt;cleared&lt;/div&gt;" style="whiteSpace=wrap;html=1;aspect=fixed;" vertex="1" parent="WIyWlLk6GJQsqaUBKTNV-1">
          <mxGeometry x="240" y="280" width="80" height="80" as="geometry" />
        </mxCell>
        <mxCell id="D25OmyDGiZj6zlAR14sD-4" value="" style="endArrow=classic;html=1;rounded=0;fontSize=12;startSize=8;endSize=8;curved=1;" edge="1" parent="WIyWlLk6GJQsqaUBKTNV-1" source="D25OmyDGiZj6zlAR14sD-0" target="D25OmyDGiZj6zlAR14sD-1">
          <mxGeometry width="50" height="50" relative="1" as="geometry">
            <mxPoint x="340" y="450" as="sourcePoint" />
            <mxPoint x="390" y="400" as="targetPoint" />
          </mxGeometry>
        </mxCell>
        <mxCell id="D25OmyDGiZj6zlAR14sD-14" value="useEffect()" style="edgeLabel;html=1;align=center;verticalAlign=middle;resizable=0;points=[];fontSize=12;" vertex="1" connectable="0" parent="D25OmyDGiZj6zlAR14sD-4">
          <mxGeometry x="-0.15" relative="1" as="geometry">
            <mxPoint as="offset" />
          </mxGeometry>
        </mxCell>
        <mxCell id="D25OmyDGiZj6zlAR14sD-5" value="" style="endArrow=classic;html=1;rounded=0;fontSize=12;startSize=8;endSize=8;curved=1;" edge="1" parent="WIyWlLk6GJQsqaUBKTNV-1" source="D25OmyDGiZj6zlAR14sD-1" target="D25OmyDGiZj6zlAR14sD-2">
          <mxGeometry width="50" height="50" relative="1" as="geometry">
            <mxPoint x="340" y="450" as="sourcePoint" />
            <mxPoint x="390" y="400" as="targetPoint" />
          </mxGeometry>
        </mxCell>
        <mxCell id="D25OmyDGiZj6zlAR14sD-13" value="useMemo()" style="edgeLabel;html=1;align=center;verticalAlign=middle;resizable=0;points=[];fontSize=12;" vertex="1" connectable="0" parent="D25OmyDGiZj6zlAR14sD-5">
          <mxGeometry x="-0.1" relative="1" as="geometry">
            <mxPoint as="offset" />
          </mxGeometry>
        </mxCell>
        <mxCell id="D25OmyDGiZj6zlAR14sD-6" value="" style="endArrow=classic;html=1;rounded=0;fontSize=12;startSize=8;endSize=8;curved=1;" edge="1" parent="WIyWlLk6GJQsqaUBKTNV-1" source="D25OmyDGiZj6zlAR14sD-1" target="D25OmyDGiZj6zlAR14sD-3">
          <mxGeometry width="50" height="50" relative="1" as="geometry">
            <mxPoint x="340" y="450" as="sourcePoint" />
            <mxPoint x="390" y="400" as="targetPoint" />
          </mxGeometry>
        </mxCell>
        <mxCell id="D25OmyDGiZj6zlAR14sD-12" value="useMemo()" style="edgeLabel;html=1;align=center;verticalAlign=middle;resizable=0;points=[];fontSize=12;" vertex="1" connectable="0" parent="D25OmyDGiZj6zlAR14sD-6">
          <mxGeometry x="-0.4" y="3" relative="1" as="geometry">
            <mxPoint as="offset" />
          </mxGeometry>
        </mxCell>
        <mxCell id="D25OmyDGiZj6zlAR14sD-7" style="edgeStyle=none;curved=1;rounded=0;orthogonalLoop=1;jettySize=auto;html=1;entryX=0.5;entryY=0;entryDx=0;entryDy=0;fontSize=12;startSize=8;endSize=8;" edge="1" parent="WIyWlLk6GJQsqaUBKTNV-1" source="D25OmyDGiZj6zlAR14sD-2" target="D25OmyDGiZj6zlAR14sD-2">
          <mxGeometry relative="1" as="geometry" />
        </mxCell>
        <mxCell id="D25OmyDGiZj6zlAR14sD-8" style="edgeStyle=none;curved=1;rounded=0;orthogonalLoop=1;jettySize=auto;html=1;exitX=1;exitY=1;exitDx=0;exitDy=0;fontSize=12;startSize=8;endSize=8;" edge="1" parent="WIyWlLk6GJQsqaUBKTNV-1" source="D25OmyDGiZj6zlAR14sD-2" target="D25OmyDGiZj6zlAR14sD-2">
          <mxGeometry relative="1" as="geometry" />
        </mxCell>
        <mxCell id="D25OmyDGiZj6zlAR14sD-9" style="edgeStyle=none;curved=1;rounded=0;orthogonalLoop=1;jettySize=auto;html=1;exitX=1;exitY=1;exitDx=0;exitDy=0;fontSize=12;startSize=8;endSize=8;" edge="1" parent="WIyWlLk6GJQsqaUBKTNV-1" source="D25OmyDGiZj6zlAR14sD-3" target="D25OmyDGiZj6zlAR14sD-3">
          <mxGeometry relative="1" as="geometry" />
        </mxCell>
        <mxCell id="D25OmyDGiZj6zlAR14sD-10" style="edgeStyle=none;curved=1;rounded=0;orthogonalLoop=1;jettySize=auto;html=1;exitX=1;exitY=1;exitDx=0;exitDy=0;fontSize=12;startSize=8;endSize=8;" edge="1" parent="WIyWlLk6GJQsqaUBKTNV-1" source="D25OmyDGiZj6zlAR14sD-3" target="D25OmyDGiZj6zlAR14sD-3">
          <mxGeometry relative="1" as="geometry" />
        </mxCell>
        <mxCell id="D25OmyDGiZj6zlAR14sD-11" value="&lt;div&gt;clickedCells&lt;/div&gt;&lt;div&gt;flaggedCells&lt;/div&gt;&lt;div&gt;hoveredCell&lt;/div&gt;&lt;div&gt;-&amp;gt; set to 0&lt;/div&gt;" style="whiteSpace=wrap;html=1;aspect=fixed;" vertex="1" parent="WIyWlLk6GJQsqaUBKTNV-1">
          <mxGeometry x="360" y="280" width="80" height="80" as="geometry" />
        </mxCell>
        <mxCell id="D25OmyDGiZj6zlAR14sD-17" style="edgeStyle=none;curved=1;rounded=0;orthogonalLoop=1;jettySize=auto;html=1;exitX=1;exitY=1;exitDx=0;exitDy=0;fontSize=12;startSize=8;endSize=8;" edge="1" parent="WIyWlLk6GJQsqaUBKTNV-1" source="D25OmyDGiZj6zlAR14sD-1" target="D25OmyDGiZj6zlAR14sD-1">
          <mxGeometry relative="1" as="geometry" />
        </mxCell>
        <mxCell id="D25OmyDGiZj6zlAR14sD-18" value="" style="endArrow=classic;html=1;rounded=0;fontSize=12;startSize=8;endSize=8;curved=1;" edge="1" parent="WIyWlLk6GJQsqaUBKTNV-1" source="D25OmyDGiZj6zlAR14sD-1" target="D25OmyDGiZj6zlAR14sD-11">
          <mxGeometry width="50" height="50" relative="1" as="geometry">
            <mxPoint x="340" y="450" as="sourcePoint" />
            <mxPoint x="390" y="400" as="targetPoint" />
          </mxGeometry>
        </mxCell>
        <mxCell id="D25OmyDGiZj6zlAR14sD-19" value="useEffect()" style="edgeLabel;html=1;align=center;verticalAlign=middle;resizable=0;points=[];fontSize=12;" vertex="1" connectable="0" parent="D25OmyDGiZj6zlAR14sD-18">
          <mxGeometry x="0.05" y="1" relative="1" as="geometry">
            <mxPoint y="-1" as="offset" />
          </mxGeometry>
        </mxCell>
      </root>
    </mxGraphModel>
  </diagram>
</mxfile>
